<svg width="52" height="64" viewBox="0 0 52 64" fill="none" xmlns="http://www.w3.org/2000/svg">
<path d="M13.6543 40.5768C13.0655 40.5768 12.6687 40.6344 12.4639 40.692V44.4616C12.7071 44.5192 13.0111 44.5352 13.4303 44.5352C14.9631 44.5352 15.9071 43.7608 15.9071 42.452C15.9071 41.2808 15.0943 40.5768 13.6543 40.5768ZM24.8127 40.6152C24.1727 40.6152 23.7567 40.6728 23.5103 40.7304V49.0824C23.7567 49.14 24.1535 49.14 24.5119 49.14C27.1263 49.1592 28.8287 47.7192 28.8287 44.6728C28.8479 42.0168 27.2959 40.6152 24.8127 40.6152Z" fill="#DB4E4E"/>
<path d="M32 0H6.4C4.70261 0 3.07475 0.674284 1.87452 1.87452C0.674284 3.07475 0 4.70261 0 6.4V57.6C0 59.2974 0.674284 60.9253 1.87452 62.1255C3.07475 63.3257 4.70261 64 6.4 64H44.8C46.4974 64 48.1253 63.3257 49.3255 62.1255C50.5257 60.9253 51.2 59.2974 51.2 57.6V19.2L32 0ZM17.5936 45.408C16.6048 46.336 15.1456 46.752 13.4464 46.752C13.1169 46.7556 12.7876 46.7363 12.4608 46.6944V51.2576H9.6V38.6624C10.8911 38.4698 12.1956 38.3821 13.5008 38.4C15.2832 38.4 16.5504 38.7392 17.4048 39.4208C18.2176 40.0672 18.768 41.1264 18.768 42.3744C18.7648 43.6288 18.3488 44.688 17.5936 45.408ZM29.776 49.744C28.432 50.8608 26.3872 51.392 23.888 51.392C22.3904 51.392 21.3312 51.296 20.6112 51.2V38.6656C21.9027 38.4771 23.2068 38.3883 24.512 38.4C26.9344 38.4 28.5088 38.8352 29.7376 39.7632C31.0656 40.7488 31.8976 42.32 31.8976 44.576C31.8976 47.0176 31.0048 48.704 29.776 49.744ZM41.6 40.864H36.6976V43.7792H41.28V46.128H36.6976V51.2608H33.7984V38.496H41.6V40.864ZM32 22.4H28.8V6.4L44.8 22.4H32Z" fill="#DB4E4E"/>
</svg>
