<svg width="132" height="32" viewBox="0 0 132 32" fill="none" xmlns="http://www.w3.org/2000/svg">
<path d="M82.8285 14.5794C82.8285 11.0316 82.8334 7.48387 82.8203 3.93447C82.8203 3.58642 82.9169 3.5109 83.251 3.51254C86.1413 3.52568 89.0316 3.48135 91.9202 3.53553C93.6462 3.56672 95.382 3.68492 96.9475 4.56817C98.513 5.45306 99.471 6.76152 99.8722 8.52965C100.201 9.98422 100.115 11.4027 99.6757 12.7932C99.0141 14.8864 97.5534 16.2064 95.4802 16.8729C94.4846 17.193 93.4628 17.3014 92.4197 17.2948C90.5528 17.2833 88.6844 17.2915 86.8176 17.2915C86.4617 17.2915 86.2837 17.4634 86.2837 17.807C86.2837 20.3041 86.2788 22.8012 86.2903 25.2982C86.2903 25.6134 86.2182 25.7201 85.8874 25.7119C85.0015 25.689 84.1156 25.689 83.2297 25.7119C82.9087 25.7201 82.8203 25.6299 82.8203 25.3048C82.8318 21.7291 82.8269 18.1534 82.8269 14.5778L82.8285 14.5794ZM86.2837 10.4817C86.2837 11.5882 86.2968 12.6931 86.2755 13.7996C86.269 14.1181 86.3705 14.1821 86.6669 14.1788C87.8935 14.1624 89.1216 14.1821 90.3481 14.169C91.4584 14.1575 92.5719 14.2478 93.6757 14.0114C94.8842 13.752 96.1565 12.8737 96.3662 11.5077C96.4595 10.9052 96.4972 10.3093 96.4137 9.71169C96.2974 8.88426 95.9699 8.16519 95.2624 7.65297C94.4502 7.06359 93.5185 6.83539 92.5523 6.81569C90.5758 6.77301 88.5976 6.79763 86.6211 6.77957C86.3492 6.77793 86.2739 6.85838 86.2772 7.12434C86.2903 8.24399 86.2821 9.36365 86.2821 10.4833L86.2837 10.4817Z" fill="#514C9F"/>
<path d="M119.193 27.6693C120.296 28.1831 121.431 28.5197 122.605 28.7085C123.83 28.9055 125.067 28.981 126.273 28.6313C127.343 28.3227 128.032 27.4575 128.106 26.3165C128.13 25.9405 128.16 25.5629 128.173 25.1853C128.18 25.0212 128.114 24.9637 127.957 24.99C126.539 25.2297 125.104 25.2904 123.68 25.2083C122.301 25.1279 120.93 24.8521 119.794 23.9803C118.808 23.2251 118.19 22.2089 117.94 20.9792C117.815 20.3669 117.786 19.7545 117.789 19.1307C117.804 16.3463 117.796 13.5603 117.796 10.7759C117.796 10.4312 117.974 10.2588 118.331 10.2588C119.191 10.2588 120.051 10.2752 120.909 10.2506C121.248 10.2407 121.307 10.3589 121.307 10.6659C121.295 13.6013 121.279 16.5367 121.31 19.4721C121.326 21.0662 122.134 21.9347 123.65 22.1908C124.914 22.4042 126.193 22.314 127.461 22.1366C127.683 22.1055 127.963 22.2302 128.121 22.0316C128.288 21.8198 128.184 21.5309 128.184 21.2764C128.189 17.8222 128.193 14.368 128.181 10.9138C128.181 10.5789 128.258 10.4722 128.604 10.4804C129.531 10.505 130.457 10.4968 131.386 10.4837C131.638 10.4804 131.707 10.5526 131.707 10.8055C131.697 15.9654 131.72 21.127 131.677 26.2869C131.664 27.8072 131.235 29.2404 130.074 30.3289C129.139 31.2055 127.988 31.6554 126.742 31.8671C125.609 32.0592 124.461 32.0067 123.326 31.9345C122.221 31.8639 121.143 31.5815 120.098 31.1957C119.833 31.0972 119.821 30.8821 119.777 30.69C119.566 29.7657 119.374 28.8382 119.181 27.9106C119.168 27.8482 119.191 27.7793 119.199 27.6742L119.193 27.6693Z" fill="#514C9F"/>
<path d="M115.662 20.1834C115.662 21.807 115.659 23.4323 115.665 25.056C115.665 25.299 115.646 25.4336 115.343 25.491C114.449 25.6601 113.545 25.7455 112.651 25.8949C110.928 26.1822 109.197 26.1428 107.468 26.1215C106.163 26.1051 104.879 25.8013 103.705 25.2711C102.678 24.8081 101.934 23.961 101.523 22.8528C101.26 22.1419 101.281 21.4327 101.327 20.7021C101.374 19.9502 101.579 19.264 101.988 18.6254C102.609 17.6584 103.536 17.1199 104.587 16.8129C106.131 16.3647 107.717 16.2104 109.326 16.3746C110.216 16.468 111.04 16.4815 111.922 16.6126C112.058 16.6323 112.14 16.6159 112.128 16.4616C112.058 15.4913 112.159 14.4669 111.318 13.7281C110.756 13.2356 110.103 12.991 109.351 12.9269C108.753 12.876 108.16 12.8498 107.564 12.8629C105.984 12.8974 104.476 13.2881 103 13.8282C102.658 13.9524 102.513 14.1139 102.658 13.5327C102.868 12.6938 103.066 11.8532 103.246 11.0078C103.284 10.8272 103.403 10.7188 103.613 10.64C104.564 10.2805 105.568 10.1836 106.551 9.98004C107.259 9.83269 107.757 9.80282 108.643 9.80273C109.53 9.80265 111.516 9.94556 112.839 10.5366C114.026 11.0685 114.835 11.9813 115.262 13.2553C115.606 14.2797 115.664 15.3173 115.665 16.3729C115.667 17.642 115.665 18.911 115.665 20.1817L115.662 20.1834ZM112.148 21.0617C112.148 20.5429 112.14 20.0241 112.151 19.507C112.156 19.2837 112.117 19.1835 111.851 19.1507C111.223 19.0736 110.592 19.0358 109.962 18.98C108.652 18.8651 107.36 18.8831 106.112 19.3477C105.511 19.571 104.867 20.2031 104.928 21.1175C104.974 21.8136 105.372 22.4128 106.117 22.7182C106.724 22.9661 107.358 23.081 108.013 23.1237C109.32 23.2107 110.613 23.127 111.905 22.9447C112.105 22.9168 112.151 22.838 112.149 22.6591C112.143 22.1272 112.148 21.5952 112.148 21.0633V21.0617Z" fill="#514C9F"/>
<path d="M73.4381 23.616C74.8856 23.4589 76.2171 23.0529 77.3977 22.1992C77.6778 21.9972 77.8415 22.0054 78.002 22.3371C78.2525 22.8558 78.5358 23.3599 78.8126 23.8672C78.9059 24.0395 78.9354 24.1659 78.7323 24.294C77.514 25.0623 76.2187 25.6238 74.7957 25.8865C73.8066 26.0687 72.8028 26.1147 71.812 26.0359C70.2678 25.9144 68.8317 25.4514 67.5724 24.4779C66.3852 23.5602 65.5828 22.3683 65.1243 20.9892C64.6952 19.7005 64.5642 18.3444 64.7394 16.9621C64.8459 16.1199 65.0096 15.3088 65.329 14.529C66.2165 12.3636 67.7378 10.9238 70.0353 10.3114C71.0358 10.0455 72.038 10.0438 73.0418 10.0914C74.5992 10.167 76.0287 10.6562 77.1963 11.7315C78.264 12.7149 78.9665 13.9019 79.3562 15.3318C79.6608 16.4466 79.7247 17.5514 79.7411 18.6826C79.746 18.9797 79.5855 18.9354 79.4103 18.9354C77.4059 18.9354 75.4016 18.9354 73.3972 18.9354C71.5697 18.9354 69.7438 18.9403 67.9163 18.9305C67.6084 18.9305 67.5102 18.9453 67.5855 19.3311C67.8066 20.4639 68.3028 21.4456 69.1101 22.2418C69.9877 23.1084 71.6042 23.815 73.4381 23.616ZM72.2378 16.5582C73.6952 16.5582 75.151 16.5598 76.6084 16.5549C76.7231 16.5549 76.9228 16.6534 76.8721 16.3645C76.7051 15.4041 76.3415 14.5405 75.6636 13.8296C74.9594 13.0925 74.1325 12.6361 73.0877 12.5179C71.7318 12.3636 70.4938 12.4785 69.3623 13.3601C68.4043 14.1071 67.9622 15.1135 67.6248 16.2118C67.5397 16.4909 67.6019 16.5697 67.9081 16.5664C69.3508 16.5483 70.7951 16.5582 72.2378 16.5582Z" fill="#282B35"/>
<path d="M44.7032 26.0763C43.7387 26.05 42.7709 25.9975 41.8473 25.7102C40.8026 25.3851 39.8479 24.9074 39.0897 24.0521C38.5804 23.4791 38.4085 22.8011 38.2611 22.1148C38.117 21.4384 38.1415 20.7358 38.325 20.0528C38.6918 18.6836 39.5498 17.7478 40.8402 17.1929C41.7769 16.7907 42.7562 16.6167 43.7698 16.528C44.3659 16.4755 44.962 16.4345 45.5498 16.4771C46.2065 16.5231 46.8648 16.5576 47.5215 16.6036C48.0291 16.6397 48.5236 16.7267 49.0264 16.7841C49.2622 16.8121 49.3768 16.748 49.3768 16.4591C49.3768 15.8352 49.3441 15.2147 49.1737 14.6154C48.8643 13.5286 48.0602 12.9573 47.0187 12.7028C46.0002 12.4533 44.9669 12.5321 43.927 12.5945C42.7496 12.6651 41.7614 12.8455 40.5455 13.3431C40.2004 13.4843 40.2492 13.4712 39.7902 13.6189C39.6101 13.5959 39.5367 13.6173 39.5613 13.4843C39.6989 12.7636 39.8299 12.0412 39.9871 11.3254C40.0329 11.1202 40.2343 11.048 40.4341 10.979C41.7114 10.539 43.0165 10.2698 44.3659 10.1384C45.7922 9.9989 47.1808 10.0925 48.5531 10.4848C49.7207 10.8181 50.6705 11.4748 51.278 12.5354C51.6104 13.1165 51.843 13.7601 51.9085 14.4398C52.2491 17.999 51.9822 21.5698 52.0706 25.1323C52.0771 25.3671 52.0264 25.5263 51.7627 25.5559C51.0307 25.638 50.2971 25.7086 49.5684 25.8103C48.6055 25.945 47.6443 26.073 46.6699 26.05C46.6159 26.05 46.5618 26.0648 46.5094 26.073C45.9085 26.073 45.3058 26.0747 44.7049 26.0763H44.7032ZM47.6615 23.5463C48.1651 23.501 48.7281 23.3348 49.1148 23.2722C49.2998 23.2427 49.3719 23.1967 49.3703 23.003C49.3637 21.8177 49.3637 20.6307 49.3703 19.4454C49.3703 19.25 49.2982 19.186 49.1132 19.1696C48.1634 19.0858 46.2638 18.9036 46.2638 18.9036L45.1175 18.9069C45.1175 18.9069 43.1623 19.0136 42.242 19.4011C41.5591 19.69 41.1317 20.1891 41.04 20.9328C40.9303 21.8095 41.2414 22.4891 42.0275 22.9324C42.4319 23.1606 42.8675 23.3116 43.3146 23.3839C43.8779 23.4742 44.9336 23.5612 44.9336 23.5612C44.9336 23.5612 45.3058 23.5891 45.4499 23.5612C45.6628 23.5612 46.0902 23.5612 46.0902 23.5612C46.0902 23.5612 47.2057 23.5872 47.6615 23.5463Z" fill="#282B35"/>
<path d="M20.4683 15.216C20.4863 16.5606 20.8334 17.8478 21.4574 19.02C22.34 20.6765 23.6402 21.916 25.3695 22.7007C26.7892 23.3459 28.2712 23.5872 29.8122 23.5052C31.0256 23.4395 32.1866 23.1243 33.31 22.6662C33.8864 22.4315 34.4333 22.1409 34.9492 21.7928C35.0867 21.7009 35.1866 21.6927 35.2718 21.8831C35.5452 22.4971 35.8285 23.1095 36.1347 23.7087C36.2314 23.8975 36.1446 23.9222 36.0201 24.0059C35.1375 24.6018 34.1844 25.0566 33.1773 25.3833C32.072 25.7412 30.9421 25.9645 29.7679 25.9825C29.3422 25.9891 28.9082 26.0695 28.4775 26.0433C26.9988 25.9497 25.5676 25.6558 24.1937 25.0664C22.828 24.482 21.6277 23.671 20.6107 22.5989C19.3498 21.2691 18.5278 19.6816 18.0431 17.9184C17.6075 16.3357 17.5911 14.7088 17.727 13.0999C17.8973 11.0789 18.6146 9.2238 19.828 7.57387C20.6828 6.41153 21.7439 5.49216 22.9786 4.76159C23.7647 4.29534 24.5933 3.92924 25.4743 3.68298C26.2423 3.46791 27.025 3.35135 27.8176 3.2627C28.3989 3.19703 28.9803 3.16748 29.5583 3.20031C31.0878 3.28568 32.5813 3.55657 33.9994 4.17386C34.7166 4.48578 35.4093 4.83219 36.0496 5.28366C36.1773 5.37396 36.2019 5.39202 36.1249 5.5447C35.8285 6.13407 35.5501 6.7333 35.2865 7.33746C35.1964 7.54432 35.0949 7.55417 34.9344 7.44417C33.9257 6.73823 32.7909 6.2966 31.6069 6.03065C30.418 5.76304 29.2112 5.64648 27.9748 5.79916C26.6746 5.95841 25.4841 6.36556 24.3738 7.03702C23.1735 7.76431 22.2401 8.75755 21.5523 9.97735C21.0955 10.7867 20.786 11.6585 20.5993 12.5647C20.5027 13.0359 20.5092 13.5284 20.4683 14.0094C20.4136 14.409 20.5195 14.8074 20.4683 15.216Z" fill="#282B35"/>
<path d="M0.00390625 18.9253C0.00881891 16.3609 0.0186442 13.7966 0.0104565 11.2322C0.0104565 10.9055 0.105435 10.6789 0.337967 10.4491C2.50609 8.29679 4.66111 6.133 6.81941 3.97249C7.88218 2.90865 8.94986 1.8481 10.0012 0.772768C10.219 0.551135 10.4417 0.336069 10.6611 0.11772C10.8347 -0.0563026 10.9477 -0.0283933 11.0885 0.142346C11.5585 0.712024 11.9449 1.3129 12.1857 2.03197C12.4166 2.71985 12.5787 3.40609 12.5574 4.12189C12.5099 5.69137 11.9417 7.05072 10.8265 8.16709C8.68785 10.3079 6.54757 12.4487 4.41056 14.5928C4.30085 14.7028 4.13709 14.7832 4.13545 14.9753C3.95041 14.9885 3.86035 15.1379 3.74735 15.2511C2.60434 16.4003 1.4646 17.5528 0.319954 18.6988C0.229889 18.7891 0.170937 18.9368 0.0055438 18.927L0.00390625 18.9253Z" fill="#514C9F"/>
<path d="M0.00248698 18.9282C0.16788 18.938 0.226832 18.7903 0.316897 18.7C1.46155 17.5524 2.60128 16.4016 3.7443 15.2524C3.85729 15.1391 3.94735 14.9897 4.1324 14.9766C5.54069 16.372 6.95226 17.7642 8.35729 19.163C9.25303 20.0528 10.157 20.9344 11.0281 21.8488C11.8469 22.7091 12.2645 23.7647 12.479 24.9303C12.7066 26.1633 12.3939 27.2944 11.9419 28.4059C11.842 28.6521 11.6439 28.8639 11.4654 29.0708C11.3671 29.184 11.2705 29.2793 11.2001 29.4254C10.9872 29.8604 10.794 29.8785 10.4304 29.5124C9.28905 28.3566 8.16405 27.1861 7.0194 26.0336C4.77923 23.7811 2.52923 21.5385 0.290696 19.2828C0.187531 19.1794 -0.0253514 19.1449 0.00248698 18.9282Z" fill="#282B35"/>
<path d="M54.7109 11.1994C55.3872 10.8908 56.1258 10.8415 56.843 10.7398C58.7655 10.4656 60.7044 10.4787 62.64 10.4804C62.9298 10.4804 63.0477 10.528 63.033 10.853C63.0035 11.4654 63.0133 12.081 63.0297 12.6951C63.0363 12.943 62.9724 13.0283 62.712 13.0201C62.0996 13.0004 61.4855 13.0152 60.8731 13.0135C59.861 13.0103 58.8605 13.1367 57.86 13.2729C57.5275 13.3189 57.3982 13.4519 57.3998 13.818C57.4145 17.6383 57.4047 21.4586 57.4162 25.2789C57.4162 25.6187 57.3638 25.7533 56.9839 25.7303C56.36 25.6926 55.7311 25.7221 55.104 25.7172C54.9713 25.7172 54.8288 25.7583 54.7109 25.6597C54.7224 25.553 54.7421 25.4463 54.7421 25.3396C54.7421 20.7329 54.7421 16.1263 54.7421 11.5196C54.7421 11.4129 54.7224 11.3062 54.7109 11.1994Z" fill="#282B35"/>
<path d="M54.7108 11.1999C54.7206 11.3066 54.7419 11.4133 54.7419 11.52C54.7419 16.1267 54.7419 20.7334 54.7419 25.3401C54.7419 25.4468 54.7222 25.5535 54.7108 25.6602C54.7059 24.6653 54.696 23.6721 54.696 22.6788C54.6944 18.9882 54.696 15.296 54.696 11.6054C54.696 11.4708 54.7059 11.3345 54.7108 11.1999Z" fill="#282B35"/>
</svg>
