<svg width="13" height="16" viewBox="0 0 13 16" fill="none" xmlns="http://www.w3.org/2000/svg">
<path d="M10.8333 15.5C10.2315 15.5 9.71991 15.2812 9.29861 14.8438C8.87731 14.4062 8.66667 13.875 8.66667 13.25C8.66667 13.1625 8.67268 13.0717 8.68472 12.9777C8.69676 12.8842 8.71482 12.8 8.73889 12.725L3.64722 9.65C3.44259 9.8375 3.21389 9.98425 2.96111 10.0903C2.70833 10.1967 2.44352 10.25 2.16667 10.25C1.56481 10.25 1.05324 10.0312 0.631944 9.59375C0.210648 9.15625 0 8.625 0 8C0 7.375 0.210648 6.84375 0.631944 6.40625C1.05324 5.96875 1.56481 5.75 2.16667 5.75C2.44352 5.75 2.70833 5.803 2.96111 5.909C3.21389 6.0155 3.44259 6.1625 3.64722 6.35L8.73889 3.275C8.71482 3.2 8.69676 3.11575 8.68472 3.02225C8.67268 2.92825 8.66667 2.8375 8.66667 2.75C8.66667 2.125 8.87731 1.59375 9.29861 1.15625C9.71991 0.71875 10.2315 0.5 10.8333 0.5C11.4352 0.5 11.9468 0.71875 12.3681 1.15625C12.7894 1.59375 13 2.125 13 2.75C13 3.375 12.7894 3.90625 12.3681 4.34375C11.9468 4.78125 11.4352 5 10.8333 5C10.5565 5 10.2917 4.94675 10.0389 4.84025C9.78611 4.73425 9.55741 4.5875 9.35278 4.4L4.26111 7.475C4.28518 7.55 4.30324 7.63425 4.31528 7.72775C4.32731 7.82175 4.33333 7.9125 4.33333 8C4.33333 8.0875 4.32731 8.178 4.31528 8.2715C4.30324 8.3655 4.28518 8.45 4.26111 8.525L9.35278 11.6C9.55741 11.4125 9.78611 11.2655 10.0389 11.159C10.2917 11.053 10.5565 11 10.8333 11C11.4352 11 11.9468 11.2188 12.3681 11.6562C12.7894 12.0938 13 12.625 13 13.25C13 13.875 12.7894 14.4062 12.3681 14.8438C11.9468 15.2812 11.4352 15.5 10.8333 15.5Z" fill="white"/>
</svg>
