<svg width="18" height="18" viewBox="0 0 18 18" fill="none" xmlns="http://www.w3.org/2000/svg">
<path d="M9 1C4.5888 1 1 4.5888 1 9V12.3144C1 13.1336 1.7176 13.8 2.6 13.8H3.4C3.61217 13.8 3.81566 13.7157 3.96569 13.5657C4.11571 13.4157 4.2 13.2122 4.2 13V8.8856C4.2 8.67343 4.11571 8.46994 3.96569 8.31991C3.81566 8.16989 3.61217 8.0856 3.4 8.0856H2.6736C3.1184 4.9896 5.7824 2.6 9 2.6C12.2176 2.6 14.8816 4.9896 15.3264 8.0856H14.6C14.3878 8.0856 14.1843 8.16989 14.0343 8.31991C13.8843 8.46994 13.8 8.67343 13.8 8.8856V13.8C13.8 14.6824 13.0824 15.4 12.2 15.4H10.6V14.6H7.4V17H12.2C13.9648 17 15.4 15.5648 15.4 13.8C16.2824 13.8 17 13.1336 17 12.3144V9C17 4.5888 13.4112 1 9 1Z" fill="#514C9F" stroke="#514C9F" stroke-width="0.5"/>
</svg>
